<svg width="30" height="20" viewBox="0 0 35 20" fill="none" xmlns="http://www.w3.org/2000/svg">
<path fill-rule="evenodd" clip-rule="evenodd" d="M32 2H3C2.44772 2 2 2.44772 2 3V6H0V3C0 1.34315 1.34315 0 3 0H32C33.6569 0 35 1.34315 35 3V6H33V3C33 2.44772 32.5523 2 32 2ZM33 11V17C33 17.5523 32.5523 18 32 18H3C2.44772 18 2 17.5523 2 17V13H0V17C0 18.6569 1.34315 20 3 20H32C33.6569 20 35 18.6569 35 17V11H33Z" fill="#D9D9D9"/>
<path d="M1 5C4.42365 6.31085 3.98135 8.85714 3.98135 8.85714C3.98135 8.85714 4.41803 13.6144 1 14" stroke="#D9D9D9"/>
<path d="M34 12C30.5759 10.9624 31.0309 8.98979 31.0309 8.98979C31.0309 8.98979 30.6157 5.29668 34.0421 5.01823" stroke="#D9D9D9"/>
<line x1="25.5" y1="1" x2="25.5" y2="8" stroke="#D9D9D9"/>
<path d="M25 19C25 19.2761 25.2239 19.5 25.5 19.5C25.7761 19.5 26 19.2761 26 19H25ZM25 12V19H26V12H25Z" fill="#D9D9D9"/>
</svg>
